<?xml version="1.0" encoding="UTF-8" standalone="no"?>
<svg
   xmlns:dc="http://purl.org/dc/elements/1.1/"
   xmlns:cc="http://creativecommons.org/ns#"
   xmlns:rdf="http://www.w3.org/1999/02/22-rdf-syntax-ns#"
   xmlns:svg="http://www.w3.org/2000/svg"
   xmlns="http://www.w3.org/2000/svg"
   width="500"
   height="500"
   viewBox="0 0 132.29166 132.29167"
   version="1.1"
   id="svg8">
  <defs
     id="defs2" />
  <metadata
     id="metadata5">
    <rdf:RDF>
      <cc:Work
         rdf:about="">
        <dc:format>image/svg+xml</dc:format>
        <dc:type
           rdf:resource="http://purl.org/dc/dcmitype/StillImage" />
        <dc:title></dc:title>
      </cc:Work>
    </rdf:RDF>
  </metadata>
  <g
     id="layer1">
    <rect
       style="opacity:1;fill:#007ac3;fill-opacity:1;fill-rule:evenodd;stroke:none;stroke-width:14.4777;stroke-linejoin:round;stroke-miterlimit:4;stroke-dasharray:none;stroke-dashoffset:40"
       id="rect929"
       width="132.32832"
       height="132.32832"
       x="-0.020832935"
       y="0.012317992" />
    <g
       aria-label="The Green"
       transform="matrix(0.68581089,0,0,0.63146482,-24.34896,-32.054704)"
       id="text858"
       style="font-style:normal;font-variant:normal;font-weight:normal;font-stretch:normal;font-size:32.4749px;line-height:1.25;font-family:'Microsoft JhengHei';-inkscape-font-specification:'Microsoft JhengHei';fill:#ffffff;stroke-width:0.811876">
      <path
         d="M 68.185737,181.71934 H 61.09771 v 22.08864 h -2.711527 v -22.08864 h -7.072171 v -2.47367 h 16.871725 z"
         style="font-style:normal;font-variant:normal;font-weight:normal;font-stretch:normal;font-family:'Microsoft JhengHei';-inkscape-font-specification:'Microsoft JhengHei';fill:#ffffff;stroke-width:0.811876"
         id="path943" />
      <path
         d="M 86.119873,203.80798 H 83.48763 v -10.11669 q 0,-5.58162 -4.170361,-5.58162 -2.108965,0 -3.536085,1.6174 -1.427119,1.6174 -1.427119,4.1545 v 9.92641 h -2.6481 v -25.95772 h 2.6481 v 11.35353 h 0.07928 q 2.013824,-3.3458 5.771906,-3.3458 5.914618,0 5.914618,7.15146 z"
         style="font-style:normal;font-variant:normal;font-weight:normal;font-stretch:normal;font-family:'Microsoft JhengHei';-inkscape-font-specification:'Microsoft JhengHei';fill:#ffffff;stroke-width:0.811876"
         id="path945" />
      <path
         d="M 105.46527,195.68926 H 93.033472 q 0.07928,3.02866 1.601546,4.64607 1.522261,1.6174 4.17036,1.6174 2.965242,0 5.470622,-1.98211 v 2.5371 q -2.29924,1.71254 -6.08904,1.71254 -3.66294,0 -5.787763,-2.39439 -2.108966,-2.39439 -2.108966,-6.73917 0,-3.99594 2.283392,-6.61232 2.299248,-2.61639 5.740192,-2.61639 3.377515,0 5.264485,2.21996 1.88697,2.21997 1.88697,6.18419 z m -2.72738,-2.33096 q -0.0159,-2.47368 -1.18927,-3.83737 -1.17341,-1.37955 -3.282376,-1.37955 -1.918683,0 -3.377516,1.37955 -1.442977,1.37955 -1.823542,3.83737 z"
         style="font-style:normal;font-variant:normal;font-weight:normal;font-stretch:normal;font-family:'Microsoft JhengHei';-inkscape-font-specification:'Microsoft JhengHei';fill:#ffffff;stroke-width:0.811876"
         id="path947" />
      <path
         d="m 136.51305,202.12715 q -3.6788,2.09311 -8.18215,2.09311 -5.21692,0 -8.45172,-3.40923 -3.21895,-3.42508 -3.21895,-8.95914 0,-5.67676 3.58366,-9.3397 3.59951,-3.6788 9.10185,-3.6788 4.05936,0 6.70746,1.31612 v 3.06038 q -2.94938,-1.88697 -7.04045,-1.88697 -4.17036,0 -6.85018,2.8701 -2.66395,2.85424 -2.66395,7.45273 0,4.69364 2.45781,7.40517 2.45782,2.71153 6.75503,2.71153 2.96524,0 5.09006,-1.18927 v -7.0246 h -5.40719 v -2.47367 h 8.11872 z"
         style="font-style:normal;font-variant:normal;font-weight:normal;font-stretch:normal;font-family:'Microsoft JhengHei';-inkscape-font-specification:'Microsoft JhengHei';fill:#ffffff;stroke-width:0.811876"
         id="path949" />
      <path
         d="m 150.89524,188.9818 q -0.72941,-0.55499 -2.10896,-0.55499 -1.85526,0 -3.06038,1.77597 -1.18927,1.76011 -1.18927,4.63021 v 8.97499 h -2.6481 v -17.53771 h 2.6481 v 3.63123 h 0.0793 q 0.60256,-1.87112 1.8394,-2.90181 1.23683,-1.0307 2.72738,-1.0307 1.12584,0 1.71254,0.23785 z"
         style="font-style:normal;font-variant:normal;font-weight:normal;font-stretch:normal;font-family:'Microsoft JhengHei';-inkscape-font-specification:'Microsoft JhengHei';fill:#ffffff;stroke-width:0.811876"
         id="path951" />
      <path
         d="m 167.95725,195.68926 h -12.4318 q 0.0793,3.02866 1.60155,4.64607 1.52226,1.6174 4.17036,1.6174 2.96524,0 5.47063,-1.98211 v 2.5371 q -2.29925,1.71254 -6.08905,1.71254 -3.66294,0 -5.78776,-2.39439 -2.10897,-2.39439 -2.10897,-6.73917 0,-3.99594 2.28339,-6.61232 2.29925,-2.61639 5.7402,-2.61639 3.37751,0 5.26448,2.21996 1.88697,2.21997 1.88697,6.18419 z m -2.72738,-2.33096 q -0.0159,-2.47368 -1.18927,-3.83737 -1.17341,-1.37955 -3.28237,-1.37955 -1.91869,0 -3.37752,1.37955 -1.44298,1.37955 -1.82354,3.83737 z"
         style="font-style:normal;font-variant:normal;font-weight:normal;font-stretch:normal;font-family:'Microsoft JhengHei';-inkscape-font-specification:'Microsoft JhengHei';fill:#ffffff;stroke-width:0.811876"
         id="path953" />
      <path
         d="m 186.2561,195.68926 h -12.4318 q 0.0793,3.02866 1.60155,4.64607 1.52226,1.6174 4.17036,1.6174 2.96524,0 5.47063,-1.98211 v 2.5371 q -2.29925,1.71254 -6.08905,1.71254 -3.66294,0 -5.78776,-2.39439 -2.10897,-2.39439 -2.10897,-6.73917 0,-3.99594 2.2834,-6.61232 2.29924,-2.61639 5.74019,-2.61639 3.37751,0 5.26448,2.21996 1.88697,2.21997 1.88697,6.18419 z m -2.72738,-2.33096 q -0.0159,-2.47368 -1.18927,-3.83737 -1.17341,-1.37955 -3.28237,-1.37955 -1.91869,0 -3.37752,1.37955 -1.44298,1.37955 -1.82354,3.83737 z"
         style="font-style:normal;font-variant:normal;font-weight:normal;font-stretch:normal;font-family:'Microsoft JhengHei';-inkscape-font-specification:'Microsoft JhengHei';fill:#ffffff;stroke-width:0.811876"
         id="path955" />
      <path
         d="m 204.98307,203.80798 h -2.6481 v -10.02155 q 0,-5.67676 -4.1545,-5.67676 -2.17239,0 -3.5678,1.63326 -1.3954,1.6174 -1.3954,4.05936 v 10.00569 h -2.6481 v -17.53771 h 2.6481 v 2.93352 h 0.0793 q 1.96625,-3.3458 5.75605,-3.3458 2.88595,0 4.40821,1.85526 1.52226,1.85525 1.52226,5.37548 z"
         style="font-style:normal;font-variant:normal;font-weight:normal;font-stretch:normal;font-family:'Microsoft JhengHei';-inkscape-font-specification:'Microsoft JhengHei';fill:#ffffff;stroke-width:0.811876"
         id="path957" />
    </g>
    <g
       aria-label="Key"
       transform="matrix(0.68581089,0,0,0.63146482,-24.34896,-32.054704)"
       id="text858-3"
       style="font-style:normal;font-variant:normal;font-weight:normal;font-stretch:normal;font-size:32.4749px;line-height:1.25;font-family:'Microsoft JhengHei';-inkscape-font-specification:'Microsoft JhengHei';fill:#ffffff;stroke-width:0.811876">
      <path
         d="m 123.63597,240.89146 h -3.8215 l -9.62513,-11.25838 q -0.49157,-0.58671 -0.65014,-0.82456 h -0.0793 v 12.08294 h -2.69567 v -24.56231 h 2.69567 v 11.54381 h 0.0793 q 0.222,-0.34885 0.65014,-0.8087 l 9.3397,-10.73511 h 3.36166 l -10.65583,11.78167 z"
         style="font-style:normal;font-variant:normal;font-weight:normal;font-stretch:normal;font-family:'Microsoft JhengHei';-inkscape-font-specification:'Microsoft JhengHei';fill:#ffffff;stroke-width:0.811876"
         id="path960" />
      <path
         d="m 140.55527,232.77274 h -12.4318 q 0.0793,3.02866 1.60155,4.64607 1.52226,1.6174 4.17036,1.6174 2.96524,0 5.47062,-1.98211 v 2.5371 q -2.29924,1.71254 -6.08904,1.71254 -3.66294,0 -5.78776,-2.39439 -2.10897,-2.39439 -2.10897,-6.73917 0,-3.99594 2.28339,-6.61232 2.29925,-2.61639 5.7402,-2.61639 3.37751,0 5.26448,2.21996 1.88697,2.21997 1.88697,6.18419 z m -2.72738,-2.33096 q -0.0159,-2.47368 -1.18927,-3.83737 -1.17341,-1.37955 -3.28238,-1.37955 -1.91868,0 -3.37751,1.37955 -1.44298,1.37955 -1.82354,3.83737 z"
         style="font-style:normal;font-variant:normal;font-weight:normal;font-stretch:normal;font-family:'Microsoft JhengHei';-inkscape-font-specification:'Microsoft JhengHei';fill:#ffffff;stroke-width:0.811876"
         id="path962" />
      <path
         d="m 158.64797,223.35375 -8.11872,20.43952 q -2.12482,5.35963 -5.96219,5.35963 -0.96727,0 -1.7284,-0.20614 v -2.41024 q 0.88799,0.28542 1.6174,0.28542 2.14068,0 3.20309,-2.56882 l 1.42712,-3.39337 -6.83431,-17.506 h 2.93352 l 4.83635,13.68449 q 0.0951,0.28543 0.36471,1.2527 h 0.0951 q 0.0634,-0.333 0.33299,-1.22098 l 5.09006,-13.71621 z"
         style="font-style:normal;font-variant:normal;font-weight:normal;font-stretch:normal;font-family:'Microsoft JhengHei';-inkscape-font-specification:'Microsoft JhengHei';fill:#ffffff;stroke-width:0.811876"
         id="path964" />
    </g>
    <g
       id="path898"
       style="opacity:1"
       transform="matrix(0.65807709,0,0,0.65807709,-24.34896,-32.054704)">
      <path
         id="path935"
         style="color:#000000;font-style:normal;font-variant:normal;font-weight:normal;font-stretch:normal;font-size:medium;line-height:normal;font-family:sans-serif;font-variant-ligatures:normal;font-variant-position:normal;font-variant-caps:normal;font-variant-numeric:normal;font-variant-alternates:normal;font-variant-east-asian:normal;font-feature-settings:normal;font-variation-settings:normal;text-indent:0;text-align:start;text-decoration:none;text-decoration-line:none;text-decoration-style:solid;text-decoration-color:#000000;letter-spacing:normal;word-spacing:normal;text-transform:none;writing-mode:lr-tb;direction:ltr;text-orientation:mixed;dominant-baseline:auto;baseline-shift:baseline;text-anchor:start;white-space:normal;shape-padding:0;shape-margin:0;inline-size:0;clip-rule:nonzero;display:inline;overflow:visible;visibility:visible;isolation:auto;mix-blend-mode:normal;color-interpolation:sRGB;color-interpolation-filters:linearRGB;solid-color:#000000;solid-opacity:1;vector-effect:none;fill:#01a856;fill-opacity:1;fill-rule:evenodd;stroke:none;stroke-width:3.77953;stroke-linecap:butt;stroke-linejoin:round;stroke-miterlimit:4;stroke-dasharray:none;stroke-dashoffset:40;stroke-opacity:1;color-rendering:auto;image-rendering:auto;shape-rendering:auto;text-rendering:auto;enable-background:accumulate;stop-color:#000000;stop-opacity:1"
         d="m 139.72349,184.17021 -8.3e-4,94.0251 c 18.96951,-12.9216 41.97338,-20.44921 66.89648,-20.44922 65.8177,0 118.2793,52.4616 118.2793,118.2793 0,65.8177 -52.4616,118.28906 -118.2793,118.28906 -24.923,0 -47.92701,-7.52791 -66.89648,-20.45117 v 92.08789 c 20.95796,7.44295 43.47488,11.51172 66.89648,11.51172 110.75508,0 201.42969,-90.68243 201.42969,-201.4375 0,-89.45312 -59.15451,-165.79358 -140.25977,-191.85547 z"
         transform="scale(0.26458333)" />
    </g>
    <path
       id="rect920"
       style="opacity:1;fill:#01a856;fill-opacity:1;fill-rule:evenodd;stroke:none;stroke-width:14.4777;stroke-linejoin:round;stroke-miterlimit:4;stroke-dasharray:none;stroke-dashoffset:40"
       d="M 45.850825,23.832524 V 40.874149 H 86.712363 V 59.543015 H 104.24845 V 49.220167 h 5.47208 v 6.964648 h 17.72245 V 40.874149 h 4.73277 V 23.832524 Z" />
  </g>
</svg>
